<svg width="1058" height="785" viewBox="0 0 1058 785" fill="none" xmlns="http://www.w3.org/2000/svg">
<rect width="1058" height="785" fill="#E5E5E5"/>
<g id="undraw_Ride_a_bicycle_2yok 1">
<g clip-path="url(#clip0)">
<g id="background">
<g id="Vector">
<path d="M209.73 115.432C204.25 122.082 202.14 131.432 199.78 140.222C180.78 211.062 133.96 268.042 80.64 308.742C58.06 325.982 30.57 349.102 35.51 380.012C38.17 396.612 49.84 408.832 58.51 422.352C76.7 450.662 82.6 489.142 73.93 523.032C64.07 561.592 36.51 597.572 45.04 636.562C50.3 660.562 68.16 677.642 85.33 692.322C112.117 715.209 139.757 736.649 168.25 756.642C187.35 770.042 207.67 783.082 229.93 784.782C249.53 786.282 268.73 778.832 287.34 771.482C303.6 765.052 320.27 758.362 333.4 745.482C341.97 737.072 348.8 726.222 358.32 719.342C380.68 703.182 409.4 713.422 435.04 720.342C495.54 736.582 560.29 730.652 617.86 703.602C706.17 662.102 773.48 574.952 859.86 528.192C897 508.082 937.4 495.602 971.79 469.702C991.165 454.956 1007.82 436.938 1020.99 416.462C1046.99 376.352 1061.05 325.212 1056.99 275.152C1052.93 225.092 1030.18 176.852 994.45 148.592C956.2 118.342 907.89 112.692 864.37 94.5322C819.43 75.7721 779.45 43.5322 734.94 23.4022C698.924 7.15881 659.728 -0.814994 620.228 0.0657808C580.728 0.946555 541.926 10.6596 506.67 28.4922C458.23 52.9922 409.13 110.152 355.18 114.492C316.74 117.492 239.75 79.0122 209.73 115.432Z" fill="#2FA791"/>
<path d="M209.73 115.432C204.25 122.082 202.14 131.432 199.78 140.222C180.78 211.062 133.96 268.042 80.64 308.742C58.06 325.982 30.57 349.102 35.51 380.012C38.17 396.612 49.84 408.832 58.51 422.352C76.7 450.662 82.6 489.142 73.93 523.032C64.07 561.592 36.51 597.572 45.04 636.562C50.3 660.562 68.16 677.642 85.33 692.322C112.117 715.209 139.757 736.649 168.25 756.642C187.35 770.042 207.67 783.082 229.93 784.782C249.53 786.282 268.73 778.832 287.34 771.482C303.6 765.052 320.27 758.362 333.4 745.482C341.97 737.072 348.8 726.222 358.32 719.342C380.68 703.182 409.4 713.422 435.04 720.342C495.54 736.582 560.29 730.652 617.86 703.602C706.17 662.102 773.48 574.952 859.86 528.192C897 508.082 937.4 495.602 971.79 469.702C991.165 454.956 1007.82 436.938 1020.99 416.462C1046.99 376.352 1061.05 325.212 1056.99 275.152C1052.93 225.092 1030.18 176.852 994.45 148.592C956.2 118.342 907.89 112.692 864.37 94.5322C819.43 75.7721 779.45 43.5322 734.94 23.4022C698.924 7.15881 659.728 -0.814994 620.228 0.0657808C580.728 0.946555 541.926 10.6596 506.67 28.4922C458.23 52.9922 409.13 110.152 355.18 114.492C316.74 117.492 239.75 79.0122 209.73 115.432Z" fill="url(#paint0_linear)"/>
</g>
</g>
<g id="body">
<g id="manonbike">
<path id="Vector_2" d="M387 554.305L344.293 512.161L330.947 525.685L373.654 567.829L387 554.305Z" fill="#1C1D22"/>
<path id="Vector_3" d="M354.48 491.992C354.48 491.992 379.27 478.912 388.85 470.492C394.617 465.446 400.818 460.919 407.38 456.962L438.48 438.032L503.48 433.032L506.48 444.032C506.48 444.032 511.48 460.032 461.48 474.032C411.48 488.032 386.48 510.032 386.48 510.032C386.48 510.032 354.48 520.992 354.48 491.992Z" fill="#DB8B8B"/>
<path id="Vector_4" opacity="0.1" d="M389.13 507.862C387.36 509.212 386.48 509.992 386.48 509.992C386.48 509.992 354.48 520.992 354.48 491.992C354.48 491.992 356.03 491.172 358.48 489.802C360.955 493.833 364.423 497.162 368.551 499.471C372.679 501.78 377.33 502.992 382.06 502.992H385.45L389.13 507.862Z" fill="black"/>
<path id="Vector_5" opacity="0.05" d="M505.54 449.552C502.76 455.442 493.17 465.122 461.48 473.992C420.87 485.362 396.75 501.992 389.13 507.862C387.36 509.212 386.48 509.992 386.48 509.992C386.48 509.992 354.48 520.992 354.48 491.992C354.48 491.992 356.03 491.172 358.48 489.802C365.91 485.732 381.64 476.802 388.82 470.452C394.586 465.405 400.787 460.877 407.35 456.922L438.45 437.992L450.03 437.102L503.45 432.992L506.45 443.992C506.45 443.992 507.15 446.142 505.54 449.552Z" fill="black"/>
<path id="Vector_6" d="M354.98 485.492L328.48 502.992L406.08 567.992C406.08 567.992 417.48 560.992 411.48 552.992C411.48 552.992 391.48 535.992 390.48 511.992L384.48 503.992H381.09C375.358 503.993 369.767 502.213 365.089 498.899C360.412 495.585 356.88 490.9 354.98 485.492Z" fill="#ABB1D1"/>
<path id="Vector_7" opacity="0.1" d="M505.54 449.552C489.54 441.822 450.48 440.992 450.48 440.992L450.06 437.102L503.48 432.992L506.48 443.992C506.48 443.992 507.15 446.142 505.54 449.552Z" fill="black"/>
<path id="Vector_8" d="M450.48 438.992C450.48 438.992 497.48 439.992 509.48 449.992L503.48 328.992H438.48L450.48 438.992Z" fill="#ABB1D1"/>
<path id="Vector_9" opacity="0.05" d="M450.48 438.492C450.48 438.492 497.48 439.492 509.48 449.492L503.48 328.492H438.48L450.48 438.492Z" fill="black"/>
<path id="Vector_10" d="M488.24 364.952C488.24 364.952 605.89 360.952 608.29 376.162C610.69 391.372 490.64 384.962 490.64 384.962C490.64 384.962 481.04 375.352 488.24 364.952Z" fill="#535461"/>
<path id="Vector_11" opacity="0.05" d="M488.24 364.952C488.24 364.952 605.89 360.952 608.29 376.162C610.69 391.372 490.64 384.962 490.64 384.962C490.64 384.962 481.04 375.352 488.24 364.952Z" fill="black"/>
<path id="Vector_12" d="M393 425.782H372.19V606.662H393V425.782Z" fill="#1C1D22"/>
<path id="Vector_13" opacity="0.1" d="M393 425.772V439.702C386.08 440.602 379 441.172 372.19 441.392V425.772H393Z" fill="black"/>
<path id="Vector_14" d="M391.44 410.782C388.52 410.556 385.616 410.166 382.74 409.612C371.46 407.452 343.02 402.922 335.37 410.612C325.77 420.212 328.97 437.022 354.58 439.422C380.19 441.822 424.21 435.422 433.02 425.812C433.02 425.772 417.09 412.752 391.44 410.782Z" fill="#535461"/>
<path id="Vector_15" d="M387.4 475.402L605.9 407.372L613.1 424.182L389 501.012L387.4 475.402Z" fill="#1C1D22"/>
<path id="Vector_16" d="M452.23 582.652L609.9 427.382L618.7 440.182L468.23 597.052L452.23 582.652Z" fill="#1C1D22"/>
<path id="Vector_17" opacity="0.1" d="M653.58 529.852C648.584 531.144 643.712 532.874 639.02 535.022L629.46 508.312C634.477 506.125 639.644 504.297 644.92 502.842L653.58 529.852Z" fill="black"/>
<path id="Vector_18" d="M680.33 608.262L669.13 614.662L590.99 396.332L587.49 386.562L605.9 376.152L610.51 390.532L680.33 608.262Z" fill="#A8A8A8" fill-opacity="0.9"/>
<path id="Vector_19" opacity="0.1" d="M610.51 390.532L590.99 396.332L587.49 386.562L605.9 376.152L610.51 390.532Z" fill="black"/>
<path id="Vector_20" d="M491.44 407.372L601.09 369.752C601.09 369.752 620.3 372.152 613.09 388.162L502.65 420.972C502.65 420.972 485.85 422.572 491.44 407.372Z" fill="#535461"/>
<path id="Vector_21" opacity="0.1" d="M367.79 615.862C367.789 621.996 367.314 628.121 366.37 634.182C356.77 633.492 346.85 632.492 337.13 631.492C339.289 619.601 339.021 607.396 336.34 595.612C345.81 593.612 355.48 591.702 364.92 589.972C366.833 598.469 367.795 607.152 367.79 615.862Z" fill="black"/>
<path id="Vector_22" opacity="0.1" d="M393 585.382V606.652H372.19V588.652C379.39 587.402 386.39 586.292 393 585.382Z" fill="black"/>
<path id="Vector_23" d="M258.54 615.492C258.54 615.492 426.62 571.492 440.22 588.282C453.82 605.072 468.23 627.492 425.85 635.492C383.47 643.492 255.37 621.882 255.37 621.882L258.54 615.492Z" fill="#1C1D22"/>
<path id="Vector_24" opacity="0.1" d="M341.21 541.372L319.85 560.922C316.067 556.066 311.791 551.616 307.09 547.642L327.03 526.812C332.164 531.251 336.908 536.123 341.21 541.372Z" fill="black"/>
<g id="Vector_25">
<path d="M252.94 606.662L378.59 475.402L382.6 505.812L259.34 618.662L252.94 606.662Z" fill="#1C1D22"/>
<path d="M252.94 606.662L378.59 475.402L382.6 505.812L259.34 618.662L252.94 606.662Z" fill="#1C1D22"/>
</g>
<path id="Vector_26" opacity="0.1" d="M251.34 628.272C258.415 628.272 264.15 622.537 264.15 615.462C264.15 608.387 258.415 602.652 251.34 602.652C244.265 602.652 238.53 608.387 238.53 615.462C238.53 622.537 244.265 628.272 251.34 628.272Z" fill="black"/>
<path id="Vector_27" opacity="0.1" d="M675.13 627.072C682.205 627.072 687.94 621.337 687.94 614.262C687.94 607.187 682.205 601.452 675.13 601.452C668.055 601.452 662.32 607.187 662.32 614.262C662.32 621.337 668.055 627.072 675.13 627.072Z" fill="black"/>
<path id="Vector_28" opacity="0.1" d="M448.22 628.272C462.364 628.272 473.83 616.806 473.83 602.662C473.83 588.518 462.364 577.052 448.22 577.052C434.076 577.052 422.61 588.518 422.61 602.662C422.61 616.806 434.076 628.272 448.22 628.272Z" fill="black"/>
<path id="Vector_29" d="M449.83 628.272C463.974 628.272 475.44 616.806 475.44 602.662C475.44 588.518 463.974 577.052 449.83 577.052C435.686 577.052 424.22 588.518 424.22 602.662C424.22 616.806 435.686 628.272 449.83 628.272Z" fill="#535461"/>
<path id="Vector_30" d="M442.992 600.738L442.984 600.744C439.977 602.993 439.362 607.255 441.611 610.262L461.937 637.443C464.186 640.45 468.448 641.065 471.455 638.816L471.463 638.81C474.471 636.561 475.085 632.299 472.836 629.292L452.51 602.111C450.261 599.104 446 598.489 442.992 600.738Z" fill="#6C63FF"/>
<path id="Vector_31" d="M565.48 246.992L563.1 277.102C562.826 280.916 562.876 284.747 563.25 288.552C563.56 291.922 563.25 297.822 559.95 306.822C555.713 318.319 553.523 330.469 553.48 342.722V376.992L530.48 372.992C530.48 372.992 531.48 324.992 527.48 316.992C523.48 308.992 530.48 237.992 530.48 237.992L565.48 246.992Z" fill="#DB8B8B"/>
<path id="Vector_32" opacity="0.05" d="M564.3 261.912L563.1 277.102C562.83 280.913 562.883 284.74 563.26 288.542C563.57 291.912 563.26 297.812 559.96 306.822C555.723 318.319 553.533 330.469 553.49 342.722V376.992L530.49 372.992C530.49 372.992 531.49 324.992 527.49 316.992C524.66 311.322 527.34 274.052 529.15 252.782C529.9 244.032 530.49 237.992 530.49 237.992L565.49 246.992L564.3 261.912Z" fill="black"/>
<path id="Vector_33" d="M451.5 476.992L442.85 526.192C441.759 532.761 440.086 539.22 437.85 545.492C432.78 559.352 436.02 578.782 438.48 589.382C439.57 594.062 440.48 597.022 440.48 597.022L414.48 611.022L406.48 605.022V601.022L405.48 512.022C399.48 498.022 401.48 477.022 405.48 469.022C406.617 466.394 407.417 463.632 407.86 460.802C409.86 450.082 410.48 435.022 410.48 435.022C410.48 435.022 426.48 408.022 445.48 426.022C452.48 432.652 455.14 441.322 455.7 449.622C456.68 463.832 451.5 476.992 451.5 476.992Z" fill="#DB8B8B"/>
<path id="Vector_34" opacity="0.1" d="M455.7 449.592C441.83 457.832 417.7 460.162 407.86 460.772C409.86 450.052 410.48 434.992 410.48 434.992C410.48 434.992 426.48 407.992 445.48 425.992C452.48 432.622 455.14 441.292 455.7 449.592Z" fill="black"/>
<path id="Vector_35" d="M489.48 424.992C478.846 430.655 468.797 437.354 459.48 444.992C443.48 457.992 403.48 458.992 403.48 458.992V443.992C404.48 425.992 387.48 405.992 364.48 349.992C349.79 314.232 353.86 293.992 358.72 283.992C361.48 278.342 364.48 275.992 364.48 275.992L489.48 299.992L493.95 313.392L503.48 341.992C503.48 341.992 468.48 343.992 462.48 346.992C456.48 349.992 460.48 376.992 460.48 376.992C454.48 404.992 489.48 424.992 489.48 424.992Z" fill="#ABB1D1"/>
<path id="Vector_36" opacity="0.1" d="M565.48 246.992L564.3 261.912C546.9 266.912 534.48 250.992 534.48 250.992C532.665 251.479 530.882 252.077 529.14 252.782C529.89 244.032 530.48 237.992 530.48 237.992L565.48 246.992Z" fill="black"/>
<path id="Vector_37" opacity="0.1" d="M493.95 313.392C493.48 318.062 493.48 320.992 493.48 320.992C493.48 320.992 470.48 339.992 431.48 310.992C392.48 281.992 357.48 289.992 357.48 289.992C357.48 289.992 357.89 287.672 358.72 283.992C361.48 278.342 364.48 275.992 364.48 275.992L489.48 299.992L493.95 313.392Z" fill="black"/>
<path id="Vector_38" d="M578.48 210.002C575.87 230.352 575 256.002 575 256.002C552 274.002 534 251.002 534 251.002C512.28 256.832 502.07 275.842 497.26 292.432C494.684 301.406 493.252 310.669 493 320.002C493 320.002 486.92 325.002 475.72 326.002C465.13 326.892 449.95 324.132 431 310.002C392 281.002 357 289.002 357 289.002C357 289.002 364 249.002 380 237.002C396 225.002 408 210.002 428 164.002C448 118.002 489 129.002 489 129.002C489 129.002 491 120.002 528 129.002C537.012 131.364 545.354 135.783 552.37 141.912C572.16 158.552 581.76 184.362 578.48 210.002Z" fill="white"/>
<path id="Vector_39" d="M541.85 149.492C541.8 150.822 541.69 152.302 541.51 153.952C539.51 171.952 537.51 169.952 515.51 173.952C501.83 176.442 494.72 165.012 491.3 156.012C490.062 152.752 489.128 149.384 488.51 145.952L536.51 137.952C536.51 137.952 542.26 136.342 541.85 149.492Z" fill="#DB8B8B"/>
<path id="Vector_40" opacity="0.05" d="M497.74 290.422C495.164 299.396 493.732 308.659 493.48 317.992C493.48 317.992 487.4 322.992 476.2 323.992C475.884 323.355 475.643 322.684 475.48 321.992C473.48 312.992 458.48 296.992 458.48 296.992C448.48 287.992 446.48 271.992 446.48 271.992L429.98 223.492L424.48 218.992C424.48 218.992 447.48 200.992 467.48 215.992C487.48 230.992 481.48 262.992 481.48 262.992L485.48 273.992C489.63 277.492 493.85 283.662 497.74 290.422Z" fill="black"/>
<path id="Vector_41" d="M427.48 217.992L449.48 270.992C449.48 270.992 451.48 286.992 461.48 295.992C461.48 295.992 476.48 311.992 478.48 320.992C480.48 329.992 508.48 353.992 508.48 353.992C508.48 353.992 534.48 377.992 536.48 386.992C536.48 386.992 560.48 393.992 557.48 407.992C557.48 407.992 575.48 389.992 557.48 372.992C539.48 355.992 515.48 320.992 515.48 320.992C515.48 320.992 501.48 283.992 488.48 272.992L484.48 261.992C484.48 261.992 490.48 229.992 470.48 214.992C450.48 199.992 427.48 217.992 427.48 217.992Z" fill="#DB8B8B"/>
<path id="Vector_42" opacity="0.1" d="M440.48 596.992L414.48 610.992L406.48 604.992V600.992C415.464 600.354 424.193 597.72 432.03 593.282C434.43 591.922 436.69 590.582 438.5 589.402C439.55 594.032 440.48 596.992 440.48 596.992Z" fill="black"/>
<path id="Vector_43" opacity="0.1" d="M470.48 175.992L484.48 230.992C484.48 230.992 441.48 237.992 432.48 230.992C423.48 223.992 406.48 221.992 406.48 221.992C406.48 221.992 424.48 169.992 434.48 163.992C444.48 157.992 470.48 175.992 470.48 175.992Z" fill="black"/>
<path id="Vector_44" d="M470.48 173.992L484.48 228.992C484.48 228.992 441.48 235.992 432.48 228.992C423.48 221.992 406.48 219.992 406.48 219.992C406.48 219.992 424.48 167.992 434.48 161.992C444.48 155.992 470.48 173.992 470.48 173.992Z" fill="white"/>
<path id="Vector_45" opacity="0.1" d="M541.85 148.492C539.049 152.358 535.487 155.611 531.383 158.049C527.278 160.488 522.718 162.06 517.983 162.671C513.248 163.282 508.439 162.917 503.85 161.6C499.261 160.283 494.99 158.041 491.3 155.012C490.062 151.752 489.128 148.384 488.51 144.952L536.51 136.952C536.51 136.952 542.26 135.342 541.85 148.492Z" fill="black"/>
<path id="Vector_46" d="M548.48 126.992C548.48 136.275 544.793 145.177 538.229 151.741C531.665 158.305 522.763 161.992 513.48 161.992C504.197 161.992 495.295 158.305 488.731 151.741C482.168 145.177 478.48 136.275 478.48 126.992C478.48 126.412 478.48 125.832 478.48 125.252C478.711 115.97 482.62 107.159 489.346 100.758C496.073 94.3576 505.067 90.8914 514.35 91.1222C523.633 91.3529 532.443 95.2617 538.844 101.989C545.245 108.716 548.711 117.71 548.48 126.992Z" fill="#DB8B8B"/>
<path id="Vector_47" opacity="0.1" d="M548.48 126.992C548.483 130.218 548.039 133.428 547.16 136.532C544.455 137.122 541.633 136.863 539.08 135.792C535.34 134.322 532.13 131.792 528.54 129.972C518.43 124.852 506.4 125.862 495.2 127.552C489.64 128.392 483.33 129.172 478.96 125.632C478.81 125.514 478.666 125.387 478.53 125.252C478.761 115.97 482.67 107.159 489.396 100.758C496.123 94.3576 505.117 90.8914 514.4 91.1222C523.683 91.3529 532.493 95.2617 538.894 101.989C545.295 108.716 548.761 117.71 548.53 126.992H548.48Z" fill="black"/>
<path id="Vector_48" opacity="0.05" d="M384.98 234.492C384.98 234.492 410.98 241.492 418.98 259.492C426.98 277.492 448.62 280.782 448.62 280.782" fill="black"/>
<path id="Vector_49" d="M482.98 630.492H422.98V649.492H482.98V630.492Z" fill="#1C1D22"/>
<path id="Vector_50" d="M431.99 595.232C437.36 592.232 442.07 589.232 442.48 587.992C442.48 587.992 456.03 602.292 468.1 606.732C472.159 608.231 476.044 610.163 479.69 612.492C484.47 615.492 491.29 619.022 497.48 619.022C497.48 619.022 511.48 631.022 484.48 633.022C457.48 635.022 394.48 628.022 394.48 628.022L398.48 603.022C410.167 603.708 421.804 601.002 431.99 595.232Z" fill="#ABB1D1"/>
<path id="Vector_51" d="M453.16 105.34C455.29 112.02 465.52 112.23 470.77 117.15C473.5 119.71 474.77 123.49 477.77 125.77C481.94 128.95 487.96 128.25 493.27 127.49C503.96 125.97 515.44 125.06 525.08 129.67C528.5 131.3 531.57 133.58 535.14 134.91C538.71 136.24 543.14 136.4 546.04 134.04C548.36 132.15 549.21 129.04 551.31 126.96C552.94 125.32 555.21 124.4 557.07 122.96C561.15 119.88 562.91 114.86 564.07 110.06C566.47 100.18 567.16 89.53 563.07 80.16C558.98 70.79 549.14 63.16 538.4 63.65C535.11 63.8 531.9 64.65 528.62 65.01C520.07 65.88 511.62 63.01 503.04 62.52C500.551 62.2172 498.027 62.5616 495.71 63.52C493.963 64.4908 492.457 65.8406 491.3 67.47C487.372 72.6154 484.682 78.5969 483.44 84.95C482.44 89.74 482.39 94.08 476.52 94.82C469.85 95.7 448.65 91.21 453.16 105.34Z" fill="#472727"/>
</g>
<g id="rightwheel">
<path id="Vector_52" d="M684.847 717.78L678.587 619.88L678.457 619.67L672.137 621.87L643.047 706.68L596.797 673.88L670.487 620.47L670.557 620.26L670.977 620.11L675.727 616.66L598.487 573.35L579.557 594.15L582.557 613.65L671.357 615.23V617.23L580.877 615.61L577.477 593.5L603.367 565.05L642.087 519.88L642.777 521.75L650.977 512.75L681.517 518.22V517.01L683.517 517.07V518.58L728.877 526.7L686.547 611.35L680.377 615.82V616.32V616.88L778.187 582.8L766.577 674.01L683.577 621.14L680.657 619.5L729.597 698.39L684.847 717.78ZM680.847 623.44L686.697 714.82L726.747 697.44L680.847 623.44ZM600.277 673.88L642.067 703.51L669.407 623.77L600.277 673.88ZM682.597 618.22L684.687 619.39L765.037 670.59L775.837 585.72L682.597 618.22ZM675.497 611.02L678.007 615.07L678.447 614.75L681.447 520.22L651.707 514.88L643.547 523.88L675.497 611.02ZM600.107 571.97L674.947 613.97L673.647 611.84L642.067 525.57L604.867 566.45L600.107 571.97ZM683.477 520.58L680.477 613.27L684.997 609.99L725.907 528.17L683.477 520.58Z" fill="#C83531"/>
<path id="Vector_53" d="M679.757 499C669.144 498.988 658.578 500.415 648.347 503.24C643.071 504.695 637.904 506.523 632.887 508.71C606.157 520.297 584.674 541.387 572.594 567.898C560.514 594.41 558.697 624.459 567.492 652.233C576.287 680.008 595.071 703.533 620.209 718.259C645.348 732.984 675.054 737.863 703.582 731.952C732.109 726.04 757.431 709.759 774.648 686.257C791.865 662.755 799.754 633.702 796.789 604.72C793.823 575.738 780.215 548.885 758.595 529.356C736.975 509.828 708.881 499.012 679.747 499H679.757ZM679.357 705.09C659.076 705.082 639.408 698.137 623.62 685.407C607.831 672.678 596.872 654.931 592.562 635.113C588.252 615.295 590.851 594.599 599.928 576.463C609.004 558.326 624.011 543.84 642.457 535.41C647.149 533.262 652.021 531.532 657.017 530.24C669.229 527.07 681.977 526.537 694.411 528.678C706.845 530.818 718.681 535.581 729.13 542.652C739.58 549.722 748.404 558.937 755.015 569.683C761.627 580.429 765.873 592.46 767.473 604.975C769.073 617.49 767.989 630.202 764.293 642.265C760.598 654.329 754.375 665.467 746.04 674.939C737.704 684.41 727.447 691.998 715.951 697.196C704.455 702.395 691.984 705.086 679.367 705.09H679.357Z" fill="#1C1D22"/>
<path id="Vector_54" d="M679.357 629.06C686.432 629.06 692.167 623.325 692.167 616.25C692.167 609.175 686.432 603.44 679.357 603.44C672.282 603.44 666.547 609.175 666.547 616.25C666.547 623.325 672.282 629.06 679.357 629.06Z" fill="#535461"/>
</g>
<g id="leftwheel">
<path id="Vector_55" d="M255.23 716.99L248.96 619.05L248.83 618.84L242.51 621.04L213.43 705.89L167.18 673.1L240.85 619.69L240.92 619.48L241.34 619.33L246.09 615.88L168.85 572.57L149.93 593.37L152.93 612.87L241.75 614.49V616.49L151.27 614.87L147.85 592.73L173.75 564.27L212.5 519.07L213.19 520.94L221.39 511.94L251.85 517.4V516.19L253.85 516.25V517.76L299.21 525.88L256.92 610.49L250.75 614.96V615.46V616.02L348.55 581.94L336.94 673.15L253.94 620.28L251.02 618.64L299.96 697.52L255.23 716.99ZM251.23 622.65L257.08 714.03L297.13 696.65L251.23 622.65ZM170.65 673.08L212.44 702.71L239.78 622.97L170.65 673.08ZM252.97 617.42L255.06 618.59L335.41 669.79L346.21 584.92L252.97 617.42ZM245.87 610.22L248.38 614.27L248.82 613.95L251.82 519.42L222.08 514.1L213.92 523.1L245.87 610.22ZM170.45 571.16L245.29 613.16L243.99 611.03L212.41 524.76L175.22 565.63L170.45 571.16ZM253.85 519.77L250.85 612.49L255.37 609.21L296.28 527.39L253.85 519.77Z" fill="#EF0B0B"/>
<path id="Vector_56" d="M364.92 589.95C360.909 572.131 352.79 555.495 341.21 541.37C336.911 536.121 332.171 531.25 327.04 526.81C307.314 509.779 282.491 499.779 256.467 498.381C230.443 496.983 204.692 504.265 183.254 519.085C161.816 533.904 145.906 555.422 138.02 580.262C130.134 605.102 130.719 631.857 139.683 656.328C148.647 680.799 165.482 701.601 187.547 715.47C209.612 729.339 235.657 735.488 261.595 732.954C287.533 730.42 311.895 719.345 330.858 701.468C349.822 683.591 362.312 659.923 366.37 634.18C367.314 628.119 367.789 621.994 367.79 615.86C367.797 607.144 366.834 598.454 364.92 589.95ZM249.73 704.3C231.498 704.281 213.714 698.647 198.797 688.164C183.879 677.682 172.552 662.859 166.356 645.712C160.16 628.565 159.395 609.926 164.165 592.329C168.935 574.732 179.009 559.031 193.018 547.361C207.026 535.692 224.288 528.619 242.457 527.106C260.627 525.593 278.821 529.712 294.567 538.904C310.312 548.096 322.845 561.914 330.46 578.48C338.076 595.045 340.405 613.554 337.13 631.49C333.38 651.933 322.58 670.414 306.611 683.718C290.642 697.021 270.514 704.304 249.73 704.3Z" fill="#1C1D22"/>
<path id="Vector_57" d="M249.73 628.27C256.805 628.27 262.54 622.535 262.54 615.46C262.54 608.385 256.805 602.65 249.73 602.65C242.655 602.65 236.92 608.385 236.92 615.46C236.92 622.535 242.655 628.27 249.73 628.27Z" fill="#535461"/>
</g>
</g>
</g>
</g>
<defs>
<linearGradient id="paint0_linear" x1="857" y1="88.0021" x2="80.5001" y2="697.502" gradientUnits="userSpaceOnUse">
<stop stop-color="#23677C"/>
<stop offset="1" stop-color="white" stop-opacity="0"/>
</linearGradient>
<clipPath id="clip0">
<rect width="1057.7" height="784.98" fill="white"/>
</clipPath>
</defs>
</svg>
